<?xml version="1.0" encoding="UTF-8" standalone="no"?>
<svg
   xmlns:dc="http://purl.org/dc/elements/1.1/"
   xmlns:cc="http://creativecommons.org/ns#"
   xmlns:rdf="http://www.w3.org/1999/02/22-rdf-syntax-ns#"
   xmlns:svg="http://www.w3.org/2000/svg"
   xmlns="http://www.w3.org/2000/svg"
   viewBox="0 0 638.74664 325.04001"
   height="325.04001"
   width="638.74664"
   xml:space="preserve"
   id="svg2"
   version="1.1"><metadata
     id="metadata8"><rdf:RDF><cc:Work
         rdf:about=""><dc:format>image/svg+xml</dc:format><dc:type
           rdf:resource="http://purl.org/dc/dcmitype/StillImage" /></cc:Work></rdf:RDF></metadata><defs
     id="defs6"><clipPath
       id="clipPath22"
       clipPathUnits="userSpaceOnUse"><path
         id="path20"
         d="m 2673.95,1542.79 c 119.58,-56.56 262.38,-5.47 318.94,114.12 56.56,119.58 5.47,262.38 -114.12,318.94 -119.59,56.56 -262.38,5.47 -318.94,-114.12 -56.56,-119.59 -5.47,-262.38 114.12,-318.94" /></clipPath><clipPath
       id="clipPath34"
       clipPathUnits="userSpaceOnUse"><path
         id="path32"
         d="m 2258.22,1638.07 c 130.23,-79.61 300.35,-38.57 379.96,91.66 79.61,130.23 38.57,300.34 -91.66,379.96 -130.23,79.61 -300.35,38.57 -379.96,-91.66 -79.61,-130.24 -38.57,-300.35 91.66,-379.96" /></clipPath><clipPath
       id="clipPath46"
       clipPathUnits="userSpaceOnUse"><path
         id="path44"
         d="m 1804.33,1618.63 c 138.92,-84.92 320.37,-41.15 405.29,97.76 84.92,138.92 41.15,320.38 -97.77,405.29 -138.92,84.93 -320.37,41.15 -405.29,-97.77 -84.92,-138.91 -41.15,-320.36 97.77,-405.28" /></clipPath><clipPath
       id="clipPath58"
       clipPathUnits="userSpaceOnUse"><path
         id="path56"
         d="m 784.43,751.949 c 202.379,-95.719 444.03,-9.258 539.75,193.121 95.72,202.38 9.25,444.03 -193.13,539.75 -202.374,95.72 -444.027,9.25 -539.741,-193.13 C 495.59,1089.32 582.055,847.66 784.43,751.949" /></clipPath><clipPath
       id="clipPath70"
       clipPathUnits="userSpaceOnUse"><path
         id="path68"
         d="m 1319.65,1460.83 c 137.13,-105.46 333.79,-79.79 439.24,57.34 105.47,137.13 79.79,333.79 -57.34,439.25 -137.12,105.46 -333.78,79.79 -439.24,-57.34 -105.46,-137.13 -79.79,-333.79 57.34,-439.25" /></clipPath></defs><g
     transform="matrix(1.3333333,0,0,-1.3333333,0,325.04)"
     id="g10"><g
       transform="scale(0.1)"
       id="g12"><path
         id="path14"
         style="fill:#deddde;fill-opacity:1;fill-rule:nonzero;stroke:none"
         d="m 2673.95,1542.79 c 119.58,-56.56 262.38,-5.47 318.94,114.12 56.56,119.58 5.47,262.38 -114.12,318.94 -119.59,56.56 -262.38,5.47 -318.94,-114.12 -56.56,-119.59 -5.47,-262.38 114.12,-318.94" /><g
         id="g16"><g
           clip-path="url(#clipPath22)"
           id="g18"><path
             id="path24"
             style="fill:#e5e5e5;fill-opacity:1;fill-rule:nonzero;stroke:none"
             d="m 2721.12,1619.26 c -34.32,0 -69.17,7.41 -102.25,23.05 -13.09,6.19 -25.35,13.42 -36.75,21.53 21.49,18.4 40.5,40.44 56.06,65.89 45.87,75.04 51.69,163.31 23.47,239.88 35.05,19.09 74.58,29.29 114.87,29.29 34.31,0 69.17,-7.41 102.25,-23.05 28.64,-13.55 53.36,-32.05 73.6,-53.98 14.54,-53.21 10.87,-111.67 -14.56,-165.44 -40.91,-86.5 -126.95,-137.17 -216.69,-137.17" /></g></g><path
         id="path26"
         style="fill:#bdbcbc;fill-opacity:1;fill-rule:nonzero;stroke:none"
         d="m 2258.22,1638.07 c 130.23,-79.61 300.35,-38.57 379.96,91.66 79.61,130.23 38.57,300.34 -91.66,379.96 -130.23,79.61 -300.35,38.57 -379.96,-91.66 -79.61,-130.24 -38.57,-300.35 91.66,-379.96" /><g
         id="g28"><g
           clip-path="url(#clipPath34)"
           id="g30"><path
             id="path36"
             style="fill:#cac9c9;fill-opacity:1;fill-rule:nonzero;stroke:none"
             d="m 2338.29,1706.68 c -40.19,0 -80.8,8.76 -118.87,27 54.67,104.45 40.63,228.78 -28.82,317.85 53.53,63.97 131.96,98.77 212.03,98.77 49.14,0 98.9,-13.11 143.89,-40.61 21.12,-12.92 39.9,-28.21 56.19,-45.32 22.45,-73.08 14.66,-155.07 -28.35,-225.43 -52.11,-85.24 -142.98,-132.27 -236.07,-132.26" /></g></g><path
         id="path38"
         style="fill:#9c9a9b;fill-opacity:1;fill-rule:nonzero;stroke:none"
         d="m 1804.33,1618.63 c 138.92,-84.92 320.37,-41.15 405.29,97.76 84.92,138.92 41.15,320.38 -97.77,405.29 -138.92,84.93 -320.37,41.15 -405.29,-97.77 -84.92,-138.91 -41.15,-320.36 97.77,-405.28" /><g
         id="g40"><g
           clip-path="url(#clipPath46)"
           id="g42"><path
             id="path48"
             style="fill:#b0aeaf;fill-opacity:1;fill-rule:nonzero;stroke:none"
             d="m 1889.61,1689.33 c -22.02,0 -44.17,2.47 -66,7.51 3.77,97.98 -38.41,196.25 -122.06,260.58 -6.62,5.09 -13.37,9.87 -20.25,14.36 6.57,17.84 14.97,35.3 25.26,52.13 55.58,90.93 152.51,141.09 251.81,141.09 52.41,0 105.49,-13.98 153.48,-43.32 21.95,-13.41 41.52,-29.24 58.59,-46.93 25.43,-78.91 17.61,-168.04 -29.02,-244.33 -55.59,-90.93 -152.51,-141.1 -251.81,-141.09" /></g></g><path
         id="path50"
         style="fill:#0dacd9;fill-opacity:1;fill-rule:nonzero;stroke:none"
         d="m 784.43,751.949 c 202.379,-95.719 444.03,-9.258 539.75,193.121 95.72,202.38 9.25,444.03 -193.13,539.75 -202.374,95.72 -444.027,9.25 -539.741,-193.13 C 495.59,1089.32 582.055,847.66 784.43,751.949" /><g
         id="g52"><g
           clip-path="url(#clipPath58)"
           id="g54"><path
             id="path60"
             style="fill:#3cbcdf;fill-opacity:1;fill-rule:nonzero;stroke:none"
             d="m 863.035,855.922 c -58.07,0 -117.055,12.527 -173.035,39.008 -41.801,19.769 -78.656,45.769 -109.98,76.359 -18.192,46.731 -27.747,96.781 -27.727,147.521 0.023,58.02 12.562,116.95 39.016,172.88 69.238,146.4 214.843,232.14 366.707,232.14 58.074,0 117.054,-12.53 173.034,-39.01 41.8,-19.77 78.66,-45.77 109.99,-76.36 38.99,-100.17 38.29,-215.56 -11.29,-320.4 C 1160.51,941.66 1014.9,855.922 863.035,855.922" /></g></g><path
         id="path62"
         style="fill:#7b7979;fill-opacity:1;fill-rule:nonzero;stroke:none"
         d="m 1319.65,1460.83 c 137.13,-105.46 333.79,-79.79 439.24,57.34 105.47,137.13 79.79,333.79 -57.34,439.25 -137.12,105.46 -333.78,79.79 -439.24,-57.34 -105.46,-137.13 -79.79,-333.79 57.34,-439.25" /><g
         id="g64"><g
           clip-path="url(#clipPath70)"
           id="g66"><path
             id="path72"
             style="fill:#969494;fill-opacity:1;fill-rule:nonzero;stroke:none"
             d="m 1437.81,1514.74 c -66.63,0.01 -133.82,21.19 -190.72,64.96 -12.01,9.23 -23.16,19.16 -33.45,29.7 -10.79,32.24 -16.28,66.02 -16.28,99.95 0,66.65 21.18,133.81 64.95,190.73 61.7,80.22 154.58,122.29 248.52,122.29 66.64,0 133.82,-21.19 190.72,-64.95 12.02,-9.24 23.16,-19.17 33.45,-29.7 32,-95.56 17.39,-204.79 -48.67,-290.68 -61.7,-80.23 -154.58,-122.31 -248.52,-122.3" /></g></g><path
         id="path74"
         style="fill:#0dacd9;fill-opacity:1;fill-rule:nonzero;stroke:none"
         d="m 3338.28,632.102 c -19.3,0 -34.28,0.378 -44.95,1.148 -10.66,0.762 -20.5,2.281 -29.51,4.57 -9.02,2.282 -15.43,5.899 -19.24,10.852 -3.8,4.949 -6.66,11.168 -8.57,18.66 -1.9,7.488 -2.85,17.328 -2.85,29.52 v 190.046 h 102.07 v 63.223 h -102.07 v 119.209 l -90.27,-27.8 v -91.409 h -85.31 v -63.223 h 81.51 V 702.559 c 0,-18.028 1.33,-34.028 3.99,-47.989 2.67,-13.961 6.29,-25.961 10.86,-35.988 4.57,-10.031 10.66,-18.602 18.28,-25.711 7.62,-7.109 15.55,-12.75 23.8,-16.941 8.25,-4.192 18.29,-7.559 30.09,-10.102 11.81,-2.539 23.29,-4.187 34.47,-4.949 11.17,-0.758 24.37,-1.141 39.61,-1.141 h 38.09 z m 341.83,-64.743 c 26.28,11.172 47.47,26.282 63.6,45.321 16.12,19.039 28.37,40.558 36.75,64.55 8.38,24 12.57,49.579 12.57,76.75 0,28.942 -4,55.661 -11.99,80.168 -8,24.5 -20,46.211 -36,65.133 -15.99,18.91 -37.2,33.758 -63.6,44.559 -26.41,10.789 -56.62,16.18 -90.64,16.18 -33.27,0 -63.17,-5.461 -89.7,-16.372 -26.53,-10.918 -48.12,-25.839 -64.74,-44.75 -16.64,-18.918 -29.27,-40.628 -37.9,-65.128 -8.63,-24.508 -12.95,-50.848 -12.95,-79.032 0,-27.679 4.25,-53.636 12.76,-77.886 8.51,-24.25 20.95,-45.832 37.33,-64.743 16.37,-18.918 37.89,-33.898 64.55,-44.937 26.66,-11.051 57,-16.57 91.03,-16.57 33,0 62.65,5.589 88.93,16.757 z m -151.58,78.071 c -16.38,12.441 -27.94,28.058 -34.66,46.851 -6.73,18.789 -10.1,39.989 -10.1,63.598 0,23.871 3.62,45.191 10.86,63.992 7.24,18.777 18.98,34.078 35.23,45.891 16.24,11.808 36.18,17.707 59.79,17.707 34.79,0 61,-11.938 78.65,-35.797 17.65,-23.871 26.47,-54.461 26.47,-91.793 0,-17.52 -1.97,-33.77 -5.9,-48.75 -3.94,-14.981 -9.91,-28.629 -17.9,-40.938 -8,-12.32 -18.99,-21.961 -32.95,-28.953 -13.96,-6.976 -30.22,-10.468 -48.75,-10.468 -24.12,0 -44.37,6.218 -60.74,18.66 z m 471.31,219 c 18.28,15.23 41,22.851 68.17,22.851 23.11,0 42.66,-7.371 58.66,-22.09 15.99,-14.73 26.28,-35.929 30.85,-63.601 h -194.24 c 6.09,26.66 18.28,47.601 36.56,62.84 z m 158.25,-301.828 c 25,7.988 49.82,20.5 74.46,37.507 l -25.52,68.563 c -40.12,-27.942 -81.26,-41.902 -123.4,-41.902 -36.06,0 -64.94,9.14 -86.65,27.421 -21.71,18.278 -33.32,46.469 -34.84,84.547 h 274.21 c 1.27,3.813 1.91,9.391 1.91,16.762 0,28.949 -3.24,55.352 -9.71,79.219 -6.48,23.863 -16.45,45.383 -29.9,64.562 -13.46,19.16 -31.74,34.078 -54.85,44.75 -23.1,10.66 -50.14,15.989 -81.12,15.989 -30.98,0 -59.22,-5.579 -84.74,-16.75 -25.52,-11.18 -46.6,-26.282 -63.22,-45.329 -16.63,-19.043 -29.52,-40.882 -38.66,-65.5 -9.14,-24.64 -13.71,-50.66 -13.71,-78.082 0,-60.687 18.98,-109.82 56.94,-147.39 37.95,-37.578 89.82,-56.367 155.58,-56.367 30.47,0 58.21,4 83.22,12" /><path
         id="path76"
         style="fill:#5a5758;fill-opacity:1;fill-rule:nonzero;stroke:none"
         d="m 1672.01,645.43 c -16.25,12.441 -28.12,28.121 -35.61,47.039 -7.49,18.91 -11.23,39.922 -11.23,63.031 0,36.309 9.77,66.711 29.32,91.219 19.55,24.5 45.96,36.75 79.22,36.75 31.99,0 56.37,-12.188 73.13,-36.559 16.75,-24.379 25.13,-55.359 25.13,-92.93 0,-17.019 -1.97,-32.89 -5.9,-47.609 -3.94,-14.73 -9.78,-28.18 -17.52,-40.371 -7.75,-12.191 -18.28,-21.77 -31.61,-28.762 -13.33,-6.976 -28.76,-10.468 -46.27,-10.468 -22.86,0 -42.41,6.218 -58.66,18.66 z m 146.44,-79.789 c 22.22,10.031 41.58,23.929 58.08,41.711 16.51,17.769 29.65,39.609 39.42,65.507 9.77,25.891 14.67,53.821 14.67,83.782 0,59.918 -15.87,108.8 -47.61,146.64 -31.74,37.828 -75.03,56.739 -129.87,56.739 -19.3,0 -37.01,-2.598 -53.13,-7.801 -16.13,-5.207 -28.82,-11.559 -38.09,-19.047 -9.27,-7.492 -16.44,-14.543 -21.52,-21.141 -5.08,-6.601 -8.25,-12.179 -9.52,-16.75 v 218.989 h -93.69 V 662.949 c 0,-2.027 0,-3.808 0,-5.328 0,-1.519 -0.07,-4.383 -0.19,-8.57 -0.13,-4.192 -0.32,-9.141 -0.57,-14.852 -0.26,-5.719 -0.64,-15.301 -1.15,-28.758 -0.51,-13.461 -1.01,-28.82 -1.52,-46.082 h 96.74 v 48.371 c 9.39,-15.492 24.81,-28.89 46.27,-40.179 21.46,-11.301 45.26,-16.949 71.41,-16.949 24.63,0 48.05,5.019 70.27,15.039 z m 292.81,-6.282 v 554.911 h -93.31 V 559.359 Z m 293.93,-1.14 c 13.33,5.07 23.86,11.422 31.61,19.043 7.74,7.617 13.84,14.789 18.28,21.519 4.44,6.719 7.3,12.879 8.57,18.469 l 1.52,-57.891 h 97.5 l -4.57,105.121 v 285.641 h -94.45 v -234.23 c 0,-31.231 -6.8,-53.891 -20.38,-67.981 -13.58,-14.09 -34.46,-21.14 -62.65,-21.14 -23.61,0 -42.15,6.41 -55.6,19.23 -13.46,12.82 -20.19,32.191 -20.19,58.09 v 246.031 h -93.69 V 702.559 c 0,-47.219 13.2,-84.36 39.61,-111.399 26.4,-27.039 63.22,-40.558 110.45,-40.558 16,0 30.66,2.539 43.99,7.617 z m 375.76,306.211 c 18.28,15.23 41.01,22.851 68.18,22.851 23.1,0 42.65,-7.371 58.65,-22.09 16,-14.73 26.28,-35.929 30.85,-63.601 h -194.24 c 6.09,26.66 18.28,47.601 36.56,62.84 z M 2939.2,562.602 c 25.01,7.988 49.83,20.5 74.46,37.507 l -25.52,68.563 c -40.12,-27.942 -81.25,-41.902 -123.4,-41.902 -36.05,0 -64.93,9.14 -86.64,27.421 -21.71,18.278 -33.33,46.469 -34.85,84.547 h 274.22 c 1.26,3.813 1.9,9.391 1.9,16.762 0,28.949 -3.24,55.352 -9.71,79.219 -6.48,23.863 -16.44,45.383 -29.9,64.562 -13.46,19.16 -31.74,34.078 -54.84,44.75 -23.11,10.66 -50.15,15.989 -81.12,15.989 -30.99,0 -59.23,-5.579 -84.75,-16.75 -25.51,-11.18 -46.59,-26.282 -63.22,-45.329 -16.63,-19.043 -29.52,-40.882 -38.66,-65.5 -9.14,-24.64 -13.71,-50.66 -13.71,-78.082 0,-60.687 18.98,-109.82 56.94,-147.39 37.96,-37.578 89.82,-56.367 155.58,-56.367 30.47,0 58.21,4 83.22,12" /></g></g></svg>